<?xml version="1.0" encoding="UTF-8" standalone="no"?>
<!-- Created with Inkscape (http://www.inkscape.org/) -->

<svg
   xmlns:dc="http://purl.org/dc/elements/1.1/"
   xmlns:cc="http://creativecommons.org/ns#"
   xmlns:rdf="http://www.w3.org/1999/02/22-rdf-syntax-ns#"
   xmlns:svg="http://www.w3.org/2000/svg"
   xmlns="http://www.w3.org/2000/svg"
   xmlns:sodipodi="http://sodipodi.sourceforge.net/DTD/sodipodi-0.dtd"
   xmlns:inkscape="http://www.inkscape.org/namespaces/inkscape"
   version="1.1"
   id="svg71844"
   xml:space="preserve"
   width="800"
   height="800"
   viewBox="0 0 800 800"
   sodipodi:docname="I-love-Costa-Rica-publicdomainvectors.org.svg"
   inkscape:version="0.92.4 (5da689c313, 2019-01-14)"><metadata
     id="metadata71850"><rdf:RDF><cc:Work
         rdf:about=""><dc:format>image/svg+xml</dc:format><dc:type
           rdf:resource="http://purl.org/dc/dcmitype/StillImage" /><dc:title></dc:title></cc:Work></rdf:RDF></metadata><defs
     id="defs71848"><clipPath
       clipPathUnits="userSpaceOnUse"
       id="clipPath71860"><path
         d="M 0,600 H 600 V 0 H 0 Z"
         id="path71858"
         inkscape:connector-curvature="0" /></clipPath></defs><sodipodi:namedview
     pagecolor="#ffffff"
     bordercolor="#666666"
     borderopacity="1"
     objecttolerance="10"
     gridtolerance="10"
     guidetolerance="10"
     inkscape:pageopacity="0"
     inkscape:pageshadow="2"
     inkscape:window-width="797"
     inkscape:window-height="480"
     id="namedview71846"
     showgrid="false"
     inkscape:zoom="0.295"
     inkscape:cx="400"
     inkscape:cy="400"
     inkscape:window-x="0"
     inkscape:window-y="0"
     inkscape:window-maximized="0"
     inkscape:current-layer="g71852" /><g
     id="g71852"
     inkscape:groupmode="layer"
     inkscape:label="I-love-Costa-Rica-publicdomainvectors.org"
     transform="matrix(1.3333333,0,0,-1.3333333,0,800)"><g
       id="g71854"><g
         id="g71856"
         clip-path="url(#clipPath71860)"><path
           d="m 498.35,484.21 c 1.16,0.706 1.802,1.941 1.802,3.207 0,0.65 -0.169,1.308 -0.524,1.908 -1.046,1.766 -3.32,2.362 -5.099,1.335 0,0 -34.563,-19.955 -80.178,-46.291 h 18.423 c 36.876,22.405 65.576,39.841 65.576,39.841"
           style="fill:#27367a;fill-opacity:1;fill-rule:nonzero;stroke:none"
           id="path71862"
           inkscape:connector-curvature="0" /><path
           d="m 521.501,484.549 c 1.156,0.706 1.795,1.938 1.795,3.201 0,0.652 -0.17,1.312 -0.526,1.912 -1.049,1.764 -3.321,2.357 -5.097,1.331 0,0 -35.494,-20.492 -80.756,-46.624 h 18.85 c 38.669,23.636 65.734,40.18 65.734,40.18"
           style="fill:#27367a;fill-opacity:1;fill-rule:nonzero;stroke:none"
           id="path71864"
           inkscape:connector-curvature="0" /><path
           d="m 568.235,446.02 c -1.045,1.77 -3.32,2.367 -5.1,1.34 0,0 -1.821,-1.051 -5.181,-2.991 h 10.787 c -0.038,0.565 -0.198,1.13 -0.506,1.651"
           style="fill:#27367a;fill-opacity:1;fill-rule:nonzero;stroke:none"
           id="path71866"
           inkscape:connector-curvature="0" /><path
           d="m 486.353,491.236 c 1.156,0.706 1.796,1.939 1.796,3.203 0,0.652 -0.17,1.311 -0.525,1.911 -1.048,1.764 -3.32,2.358 -5.098,1.333 0,0 -16.182,-9.344 -17.604,-10.165 1.515,0.908 18.111,10.853 18.111,10.853 1.171,0.702 1.822,1.943 1.822,3.218 0,0.646 -0.167,1.301 -0.518,1.897 -1.044,1.774 -3.322,2.375 -5.105,1.346 0,0 -43.905,-25.349 -104.723,-60.463 h 35.001 c 43.578,26.579 76.843,46.867 76.843,46.867"
           style="fill:#27367a;fill-opacity:1;fill-rule:nonzero;stroke:none"
           id="path71868"
           inkscape:connector-curvature="0" /><path
           d="m 553.448,473.677 c 1.154,0.707 1.791,1.938 1.791,3.2 0,0.652 -0.17,1.312 -0.527,1.913 -1.049,1.763 -3.319,2.356 -5.096,1.33 0,0 -24.924,-14.39 -61.923,-35.751 h 17.883 c 29.106,17.819 47.872,29.308 47.872,29.308"
           style="fill:#27367a;fill-opacity:1;fill-rule:nonzero;stroke:none"
           id="path71870"
           inkscape:connector-curvature="0" /><path
           d="m 542.017,451.641 c 1.171,0.702 1.822,1.944 1.822,3.218 0,0.646 -0.167,1.301 -0.519,1.897 -1.043,1.774 -3.322,2.375 -5.104,1.346 0,0 -8.905,-5.141 -23.787,-13.733 h 15.45 c 6.758,4.048 12.138,7.272 12.138,7.272"
           style="fill:#27367a;fill-opacity:1;fill-rule:nonzero;stroke:none"
           id="path71872"
           inkscape:connector-curvature="0" /><path
           d="m 280.905,448.953 c 1.124,0.713 1.741,1.927 1.741,3.169 0,0.662 -0.174,1.332 -0.542,1.938 -1.056,1.745 -3.314,2.325 -5.081,1.305 0,0 -7.225,-4.172 -19.045,-10.996 h 15.695 c 4.606,2.919 7.232,4.584 7.232,4.584"
           style="fill:#27367a;fill-opacity:1;fill-rule:nonzero;stroke:none"
           id="path71874"
           inkscape:connector-curvature="0" /><path
           d="m 523.421,470.889 c 1.154,0.706 1.792,1.938 1.792,3.2 0,0.652 -0.17,1.312 -0.527,1.912 -1.048,1.764 -3.319,2.356 -5.096,1.331 0,0 -23.152,-13.368 -57.094,-32.963 h 17.587 c 26.196,16.03 43.338,26.52 43.338,26.52"
           style="fill:#27367a;fill-opacity:1;fill-rule:nonzero;stroke:none"
           id="path71876"
           inkscape:connector-curvature="0" /><path
           d="m 402.481,164.041 c -33.884,-21.501 -76.099,-48.288 -76.099,-48.288 -1.124,-0.713 -1.74,-1.926 -1.74,-3.168 0,-0.661 0.174,-1.332 0.543,-1.938 1.055,-1.745 3.312,-2.325 5.08,-1.304 0,0 52.963,30.579 105.878,61.131 -22.988,-15.313 -50.974,-33.954 -50.974,-33.954 -1.082,-0.721 -1.672,-1.91 -1.672,-3.124 0,-0.675 0.184,-1.359 0.565,-1.973 1.068,-1.72 3.306,-2.281 5.058,-1.27 l 72.09,41.618 h -69.548 c -50.012,-31.551 -99.476,-62.758 -99.476,-62.758 -1.129,-0.712 -1.749,-1.929 -1.749,-3.174 0,-0.66 0.173,-1.328 0.541,-1.934 0.06,-0.103 0.14,-0.188 0.21,-0.283 h 6.648 c 9.808,5.662 58.706,33.895 104.645,60.419"
           style="fill:#27367a;fill-opacity:1;fill-rule:nonzero;stroke:none"
           id="path71878"
           inkscape:connector-curvature="0" /><path
           d="m 563.294,454.444 c 1.153,0.706 1.791,1.937 1.791,3.2 0,0.651 -0.17,1.312 -0.527,1.913 -1.049,1.762 -3.32,2.355 -5.096,1.329 0,0 -14.217,-8.208 -28.608,-16.517 h 15.997 c 10.456,6.406 16.443,10.075 16.443,10.075"
           style="fill:#27367a;fill-opacity:1;fill-rule:nonzero;stroke:none"
           id="path71880"
           inkscape:connector-curvature="0" /><path
           d="m 177.66,151.772 c -1.161,-0.705 -1.804,-1.941 -1.804,-3.208 0,-0.649 0.169,-1.307 0.523,-1.906 1.047,-1.767 3.321,-2.364 5.1,-1.336 0,0 18.205,10.511 45.812,26.449 H 210.62 c -18.748,-11.375 -32.96,-19.999 -32.96,-19.999"
           style="fill:#27367a;fill-opacity:1;fill-rule:nonzero;stroke:none"
           id="path71882"
           inkscape:connector-curvature="0" /><path
           d="m 208.042,131.397 c -1.15,-0.706 -1.786,-1.935 -1.786,-3.196 0,-0.652 0.171,-1.313 0.529,-1.915 1.049,-1.761 3.319,-2.352 5.094,-1.327 0,0 37.453,21.623 48.487,27.994 -9.969,-6.027 -45.513,-27.515 -45.513,-27.515 -1.164,-0.705 -1.809,-1.943 -1.809,-3.211 0,-0.649 0.168,-1.306 0.521,-1.904 1.046,-1.769 3.321,-2.367 5.102,-1.339 0,0 55.865,32.253 86.904,50.174 -24.243,-14.74 -73.821,-44.882 -73.821,-44.882 -1.16,-0.705 -1.802,-1.939 -1.802,-3.206 0,-0.65 0.169,-1.308 0.524,-1.907 1.047,-1.767 3.32,-2.362 5.099,-1.335 0,0 44.607,25.754 63.657,36.751 -17.592,-10.699 -60.319,-36.688 -60.319,-36.688 -1.16,-0.705 -1.802,-1.941 -1.802,-3.206 0,-0.651 0.17,-1.309 0.525,-1.909 1.047,-1.765 3.32,-2.361 5.098,-1.334 0,0 49.474,28.564 104.495,60.329 h -73.478 c -37.415,-22.99 -65.705,-40.374 -65.705,-40.374"
           style="fill:#27367a;fill-opacity:1;fill-rule:nonzero;stroke:none"
           id="path71884"
           inkscape:connector-curvature="0" /><path
           d="m 222.931,500.787 c 1.103,0.716 1.707,1.918 1.707,3.147 0,0.668 -0.179,1.344 -0.553,1.955 -1.061,1.732 -3.31,2.304 -5.069,1.288 0,0 -38.938,-22.481 -70.745,-40.844 21.682,13.932 53.104,34.123 53.104,34.123 1.112,0.714 1.723,1.921 1.723,3.156 0,0.665 -0.178,1.339 -0.549,1.947 -1.059,1.738 -3.312,2.313 -5.074,1.295 0,0 -27.109,-15.651 -43.659,-25.206 11.674,7.553 34.382,22.245 34.382,22.245 1.107,0.716 1.714,1.92 1.714,3.15 0,0.667 -0.179,1.343 -0.552,1.953 -1.06,1.734 -3.311,2.307 -5.071,1.29 0,0 -32.505,-18.767 -63.074,-36.417 21.78,14.768 47.495,32.204 47.495,32.204 1.067,0.723 1.646,1.902 1.646,3.105 0,0.681 -0.186,1.369 -0.572,1.987 -0.379,0.604 -0.907,1.055 -1.503,1.353 h -3.333 c -0.071,-0.035 -0.145,-0.057 -0.215,-0.097 0,0 -33.252,-19.198 -66.503,-38.395 21.661,15.536 44.492,31.912 44.492,31.912 1.017,0.729 1.564,1.878 1.564,3.048 0,0.697 -0.195,1.402 -0.599,2.029 -0.477,0.739 -1.177,1.241 -1.954,1.503 H 139.3 c -0.217,-0.076 -0.431,-0.17 -0.637,-0.289 0,0 -18.968,-10.952 -37.76,-21.802 8.627,6.881 19.445,15.509 19.445,15.509 0.924,0.737 1.412,1.828 1.412,2.933 0,0.729 -0.213,1.464 -0.652,2.109 -0.55,0.808 -1.366,1.335 -2.254,1.54 h -1.622 c -0.375,-0.08 -0.746,-0.204 -1.095,-0.405 L 74.314,487.965 c -1.793,-1.035 -2.406,-3.327 -1.372,-5.12 0.878,-1.52 2.658,-2.183 4.273,-1.722 -9.05,-7.218 -20.08,-16.015 -20.08,-16.015 -0.924,-0.736 -1.411,-1.827 -1.411,-2.932 0,-0.73 0.212,-1.466 0.651,-2.11 1.105,-1.62 3.273,-2.115 4.971,-1.134 0,0 10.598,6.119 15.265,8.813 -11.818,-8.476 -23.978,-17.198 -32.592,-23.376 h 17.835 c 5.577,3.22 11.415,6.59 16.793,9.695 -4.683,-3.175 -9.547,-6.473 -14.299,-9.695 h 71.674 c 43.381,28.161 86.909,56.418 86.909,56.418"
           style="fill:#27367a;fill-opacity:1;fill-rule:nonzero;stroke:none"
           id="path71886"
           inkscape:connector-curvature="0" /><path
           d="m 160.075,170.486 c 0,0 0.796,0.459 2.227,1.285 h -7.29 c 1.061,-1.723 3.303,-2.301 5.063,-1.285"
           style="fill:#27367a;fill-opacity:1;fill-rule:nonzero;stroke:none"
           id="path71888"
           inkscape:connector-curvature="0" /><path
           d="m 167.979,157.685 c -1.149,-0.707 -1.784,-1.937 -1.784,-3.196 0,-0.654 0.171,-1.315 0.53,-1.916 1.049,-1.76 3.318,-2.351 5.093,-1.327 0,0 15.329,8.851 35.552,20.525 h -16.497 c -14.322,-8.812 -22.894,-14.086 -22.894,-14.086"
           style="fill:#27367a;fill-opacity:1;fill-rule:nonzero;stroke:none"
           id="path71890"
           inkscape:connector-curvature="0" /><path
           d="m 199.852,150.421 c -1.152,-0.706 -1.789,-1.937 -1.789,-3.197 0,-0.654 0.171,-1.314 0.529,-1.914 1.049,-1.763 3.319,-2.355 5.095,-1.33 0,0 35.497,20.495 44.899,25.923 -8.714,-5.26 -42.794,-25.832 -42.794,-25.832 -1.165,-0.704 -1.812,-1.941 -1.812,-3.212 0,-0.648 0.169,-1.304 0.522,-1.902 1.045,-1.77 3.321,-2.369 5.102,-1.341 0,0 25.137,14.514 59.159,34.155 h -34.122 c -21.123,-12.962 -34.789,-21.35 -34.789,-21.35"
           style="fill:#27367a;fill-opacity:1;fill-rule:nonzero;stroke:none"
           id="path71892"
           inkscape:connector-curvature="0" /><path
           d="m 154.437,164.951 c -1.165,-0.704 -1.811,-1.941 -1.811,-3.212 0,-0.647 0.168,-1.303 0.521,-1.902 1.046,-1.771 3.322,-2.368 5.102,-1.34 0,0 8.576,4.951 22.993,13.274 h -15.514 c -6.917,-4.177 -11.291,-6.82 -11.291,-6.82"
           style="fill:#27367a;fill-opacity:1;fill-rule:nonzero;stroke:none"
           id="path71894"
           inkscape:connector-curvature="0" /><path
           d="m 263.756,118.368 c -1.139,-0.709 -1.768,-1.932 -1.768,-3.185 0,-0.657 0.173,-1.322 0.534,-1.924 1.053,-1.755 3.317,-2.342 5.089,-1.319 0,0 44.363,25.613 68.285,39.424 -23.161,-14.245 -66.482,-40.891 -66.482,-40.891 -1.15,-0.707 -1.786,-1.937 -1.786,-3.197 0,-0.652 0.171,-1.314 0.53,-1.916 0.56,-0.939 1.47,-1.532 2.465,-1.738 h 1.496 c 0.388,0.079 0.771,0.204 1.132,0.412 0,0 57.513,33.204 117.327,67.737 h -41.001 c -44.729,-27.833 -85.821,-53.403 -85.821,-53.403"
           style="fill:#27367a;fill-opacity:1;fill-rule:nonzero;stroke:none"
           id="path71896"
           inkscape:connector-curvature="0" /><path
           d="m 237.867,472.366 c 1.106,0.716 1.712,1.919 1.712,3.15 0,0.667 -0.179,1.342 -0.552,1.953 -1.061,1.734 -3.311,2.305 -5.071,1.289 0,0 -33.816,-19.524 -59.564,-34.389 h 20.232 c 25.034,16.208 43.243,27.997 43.243,27.997"
           style="fill:#27367a;fill-opacity:1;fill-rule:nonzero;stroke:none"
           id="path71898"
           inkscape:connector-curvature="0" /><path
           d="m 243.286,488.177 c 1.127,0.712 1.746,1.927 1.746,3.171 0,0.661 -0.175,1.33 -0.541,1.936 -1.055,1.746 -3.315,2.327 -5.082,1.307 0,0 -16.614,-9.592 -19.856,-11.464 1.178,0.731 11.416,7.091 11.416,7.091 1.141,0.708 1.771,1.932 1.771,3.187 0,0.656 -0.173,1.32 -0.534,1.923 -1.052,1.755 -3.317,2.343 -5.089,1.319 0,0 -45.223,-26.109 -90.549,-52.278 h 37.424 c 31.206,19.728 69.294,43.808 69.294,43.808"
           style="fill:#27367a;fill-opacity:1;fill-rule:nonzero;stroke:none"
           id="path71900"
           inkscape:connector-curvature="0" /><path
           d="m 263.109,453.949 c 1.109,0.716 1.717,1.921 1.717,3.153 0,0.666 -0.178,1.341 -0.551,1.95 -0.825,1.352 -2.371,1.971 -3.848,1.711 0.53,0.667 0.836,1.48 0.836,2.32 0,0.651 -0.171,1.312 -0.527,1.912 -1.048,1.763 -3.319,2.356 -5.096,1.33 0,0 -12.527,-7.232 -14.162,-8.177 3.335,2.062 20.638,12.759 20.638,12.759 1.146,0.708 1.778,1.934 1.778,3.191 0,0.654 -0.171,1.318 -0.531,1.92 -1.051,1.757 -3.318,2.347 -5.092,1.323 0,0 -24.238,-13.994 -57.109,-32.972 h 47.103 c 9.243,5.965 14.844,9.58 14.844,9.58"
           style="fill:#27367a;fill-opacity:1;fill-rule:nonzero;stroke:none"
           id="path71902"
           inkscape:connector-curvature="0" /><path
           d="m 190.873,171.771 h 16.497 c 20.917,12.077 47.068,27.174 66.922,38.637 -18.569,-11.268 -43.696,-26.514 -63.672,-38.637 h 16.671 c 31.466,18.167 75.147,43.387 118.038,68.15 h -43.708 c -44.409,-27.327 -86.1,-52.982 -110.748,-68.15"
           style="fill:#ffffff;fill-opacity:1;fill-rule:nonzero;stroke:none"
           id="path71904"
           inkscape:connector-curvature="0" /><path
           d="m 54.013,236.327 c -1.157,-0.705 -1.797,-1.938 -1.797,-3.203 0,-0.65 0.17,-1.31 0.526,-1.91 1.047,-1.765 3.319,-2.359 5.097,-1.332 0,0 6.518,3.763 17.389,10.039 H 59.905 c -3.807,-2.321 -5.892,-3.594 -5.892,-3.594"
           style="fill:#ffffff;fill-opacity:1;fill-rule:nonzero;stroke:none"
           id="path71906"
           inkscape:connector-curvature="0" /><path
           d="m 32.138,435.848 c -1.017,-0.73 -1.564,-1.88 -1.564,-3.049 0,-0.697 0.194,-1.402 0.598,-2.029 1.084,-1.679 3.294,-2.213 5.024,-1.214 0,0 12.051,6.957 25.658,14.813 H 44.019 c -7.166,-5.14 -11.881,-8.521 -11.881,-8.521"
           style="fill:#ffffff;fill-opacity:1;fill-rule:nonzero;stroke:none"
           id="path71908"
           inkscape:connector-curvature="0" /><path
           d="m 278.017,432.96 c 1.114,0.715 1.725,1.922 1.725,3.157 0,0.666 -0.178,1.339 -0.548,1.947 -1.059,1.739 -3.313,2.314 -5.075,1.296 0,0 -49.714,-28.703 -93.453,-53.956 37.22,23.597 77.042,48.843 93.007,58.965 h -15.695 c -21.087,-12.175 -56.8,-32.794 -92.204,-53.235 31.737,20.482 64.23,41.451 82.491,53.235 h -47.103 c -18.35,-10.595 -39.39,-22.742 -60.407,-34.876 18.76,12.146 37.732,24.428 53.869,34.876 h -20.232 c -1.568,-0.906 -3.107,-1.794 -4.606,-2.66 1.385,0.876 2.789,1.764 4.206,2.66 h -37.424 c -1.645,-0.95 -3.291,-1.9 -4.934,-2.849 1.461,0.949 2.925,1.899 4.388,2.849 H 64.348 C 46.981,432.594 31.122,421.84 31.122,421.84 c -1.067,-0.723 -1.645,-1.902 -1.645,-3.105 0,-0.681 0.185,-1.369 0.572,-1.987 1.071,-1.709 3.303,-2.265 5.05,-1.256 0,0 18.049,10.421 24.777,14.306 C 48.206,422.247 25.5,407.556 25.5,407.556 c -1.107,-0.716 -1.712,-1.919 -1.712,-3.15 0,-0.667 0.177,-1.343 0.55,-1.952 1.061,-1.735 3.311,-2.308 5.072,-1.291 0,0 23.72,13.696 35.173,20.308 -21.632,-13.9 -53.028,-34.073 -53.028,-34.073 -1.113,-0.715 -1.722,-1.922 -1.722,-3.157 0,-0.665 0.177,-1.338 0.547,-1.947 1.06,-1.738 3.312,-2.313 5.075,-1.295 0,0 43.139,24.905 82.976,47.904 C 66.364,408.086 33.418,386.699 17.275,376.22 h 32.109 c 10.574,6.105 22.409,12.938 32.101,18.534 -9.363,-5.92 -19.57,-12.373 -29.317,-18.534 h 19.18 c 12.417,7.169 25.766,14.876 38.996,22.514 -11.759,-7.613 -23.6,-15.279 -34.775,-22.514 h 52.921 c 1.098,0.634 2.197,1.268 3.294,1.901 -0.982,-0.633 -1.964,-1.267 -2.947,-1.901 h 60.782 c 46.075,29.573 88.398,56.74 88.398,56.74"
           style="fill:#ffffff;fill-opacity:1;fill-rule:nonzero;stroke:none"
           id="path71910"
           inkscape:connector-curvature="0" /><path
           d="m 311.86,412.87 c 1.131,0.711 1.754,1.929 1.754,3.176 0,0.66 -0.174,1.327 -0.538,1.932 -1.054,1.75 -3.315,2.333 -5.085,1.311 0,0 -40.816,-23.566 -65.512,-37.824 18.735,11.667 54.293,33.811 54.293,33.811 1.139,0.71 1.768,1.932 1.768,3.185 0,0.657 -0.174,1.322 -0.535,1.925 -1.052,1.754 -3.317,2.341 -5.088,1.318 0,0 -40.554,-23.414 -78.78,-45.484 h 39.41 c 31.04,19.509 58.313,36.65 58.313,36.65"
           style="fill:#ffffff;fill-opacity:1;fill-rule:nonzero;stroke:none"
           id="path71912"
           inkscape:connector-curvature="0" /><path
           d="m 284.256,421.066 c 1.128,0.712 1.748,1.929 1.748,3.174 0,0.66 -0.174,1.328 -0.54,1.934 -1.056,1.747 -3.315,2.329 -5.083,1.308 0,0 -42.33,-24.438 -88.791,-51.262 h 21.61 c 33.91,21.402 71.056,44.846 71.056,44.846"
           style="fill:#ffffff;fill-opacity:1;fill-rule:nonzero;stroke:none"
           id="path71914"
           inkscape:connector-curvature="0" /><path
           d="m 63.406,228.721 c -1.16,-0.704 -1.803,-1.94 -1.803,-3.206 0,-0.65 0.169,-1.308 0.524,-1.908 1.047,-1.766 3.32,-2.362 5.099,-1.335 0,0 11.558,6.672 30.568,17.649 H 81.838 c -11.468,-6.969 -18.432,-11.2 -18.432,-11.2"
           style="fill:#ffffff;fill-opacity:1;fill-rule:nonzero;stroke:none"
           id="path71916"
           inkscape:connector-curvature="0" /><path
           d="m 98.956,219.93 c -1.155,-0.706 -1.793,-1.939 -1.793,-3.201 0,-0.652 0.17,-1.312 0.527,-1.912 1.048,-1.763 3.319,-2.357 5.096,-1.331 0,0 17.834,10.297 45.785,26.435 H 131.624 C 111.542,227.632 98.956,219.93 98.956,219.93"
           style="fill:#ffffff;fill-opacity:1;fill-rule:nonzero;stroke:none"
           id="path71918"
           inkscape:connector-curvature="0" /><path
           d="m 107.066,209.18 c -1.153,-0.706 -1.792,-1.937 -1.792,-3.2 0,-0.652 0.171,-1.311 0.528,-1.913 1.048,-1.762 3.319,-2.355 5.095,-1.329 0,0 26.424,15.255 30.412,17.558 -6.066,-3.636 -38.018,-22.78 -38.018,-22.78 -1.173,-0.702 -1.823,-1.944 -1.823,-3.218 0,-0.647 0.167,-1.301 0.518,-1.897 1.043,-1.774 3.322,-2.376 5.105,-1.345 0,0 35.103,20.265 84.638,48.865 H 157.278 C 126.847,221.29 107.066,209.18 107.066,209.18"
           style="fill:#ffffff;fill-opacity:1;fill-rule:nonzero;stroke:none"
           id="path71920"
           inkscape:connector-curvature="0" /><path
           d="m 156.25,176.933 c -1.157,-0.705 -1.798,-1.939 -1.798,-3.204 0,-0.651 0.17,-1.31 0.525,-1.91 0.01,-0.016 0.024,-0.03 0.035,-0.048 h 7.29 c 10.478,6.049 55.384,31.976 77.44,44.709 -20.371,-12.304 -55.914,-33.775 -74.014,-44.709 h 15.514 c 25.796,14.894 70.319,40.599 118.038,68.15 H 259.607 C 204.88,206.569 156.25,176.933 156.25,176.933"
           style="fill:#ffffff;fill-opacity:1;fill-rule:nonzero;stroke:none"
           id="path71922"
           inkscape:connector-curvature="0" /><path
           d="m 116.827,189.688 c -1.153,-0.707 -1.79,-1.938 -1.79,-3.2 0,-0.652 0.17,-1.312 0.527,-1.912 1.049,-1.763 3.319,-2.355 5.096,-1.33 0,0 53.217,30.724 98.166,56.675 h -20.011 c -47.86,-29.324 -81.988,-50.233 -81.988,-50.233"
           style="fill:#ffffff;fill-opacity:1;fill-rule:nonzero;stroke:none"
           id="path71924"
           inkscape:connector-curvature="0" /><path
           d="m 130.315,185.855 c -1.165,-0.703 -1.811,-1.941 -1.811,-3.21 0,-0.649 0.169,-1.306 0.522,-1.904 1.045,-1.769 3.321,-2.367 5.101,-1.339 0,0 52.037,30.042 72.67,41.955 -17.96,-10.816 -66.577,-40.095 -66.577,-40.095 -1.168,-0.703 -1.815,-1.943 -1.815,-3.214 0,-0.648 0.168,-1.304 0.52,-1.902 1.045,-1.771 3.322,-2.37 5.103,-1.34 0,0 52.765,30.463 112.785,65.115 h -37.014 c -40.495,-24.467 -89.484,-54.066 -89.484,-54.066"
           style="fill:#ffffff;fill-opacity:1;fill-rule:nonzero;stroke:none"
           id="path71926"
           inkscape:connector-curvature="0" /><path
           d="M 480.083,444.369 H 462.496 C 429.548,425.346 386.433,400.454 344.457,376.22 h 24.261 c 40.923,25.042 81.881,50.106 111.365,68.149"
           style="fill:#ffffff;fill-opacity:1;fill-rule:nonzero;stroke:none"
           id="path71928"
           inkscape:connector-curvature="0" /><path
           d="m 568.833,395.546 c 1.149,0.707 1.784,1.936 1.784,3.195 0,0.654 -0.171,1.315 -0.529,1.916 -1.05,1.761 -3.319,2.352 -5.094,1.327 0,0 -21.772,-12.569 -44.627,-25.764 h 17.059 c 19.376,11.923 31.407,19.326 31.407,19.326"
           style="fill:#ffffff;fill-opacity:1;fill-rule:nonzero;stroke:none"
           id="path71930"
           inkscape:connector-curvature="0" /><path
           d="m 567.444,405.674 c 1.165,0.704 1.811,1.943 1.811,3.212 0,0.649 -0.168,1.305 -0.522,1.903 -1.045,1.77 -3.321,2.368 -5.101,1.34 0,0 -27.445,-15.845 -62.198,-35.909 h 17.249 c 24.612,14.867 48.761,29.454 48.761,29.454"
           style="fill:#ffffff;fill-opacity:1;fill-rule:nonzero;stroke:none"
           id="path71932"
           inkscape:connector-curvature="0" /><path
           d="m 583.693,428.646 c 1.158,0.706 1.799,1.939 1.799,3.204 0,0.65 -0.17,1.31 -0.525,1.909 -1.048,1.766 -3.321,2.36 -5.098,1.334 0,0 -59.839,-34.548 -88.042,-50.831 17.944,10.807 66.547,40.077 66.547,40.077 1.167,0.703 1.814,1.943 1.814,3.214 0,0.648 -0.167,1.303 -0.52,1.901 -1.044,1.771 -3.321,2.37 -5.103,1.342 0,0 -59.189,-34.173 -94.529,-54.576 h 37.63 c 47.273,28.808 86.027,52.426 86.027,52.426"
           style="fill:#ffffff;fill-opacity:1;fill-rule:nonzero;stroke:none"
           id="path71934"
           inkscape:connector-curvature="0" /><path
           d="m 511.869,201.019 c 1.793,1.035 2.407,3.327 1.372,5.12 -1.035,1.793 -3.327,2.407 -5.12,1.372 0,0 -15.241,-8.8 -21.404,-12.358 23.027,15.339 51.034,33.994 51.034,33.994 1.082,0.721 1.671,1.91 1.671,3.124 0,0.674 -0.183,1.358 -0.565,1.972 -1.067,1.72 -3.305,2.282 -5.058,1.271 0,0 -32.47,-18.747 -52.039,-30.047 18.329,11.631 39.094,24.806 54.297,34.454 h -17.144 c -17.887,-10.328 -40.222,-23.223 -61.086,-35.27 19.071,12.033 38.621,24.367 55.903,35.27 h -39.443 c -4.681,-2.702 -9.331,-5.387 -13.893,-8.022 4.264,2.654 8.572,5.334 12.89,8.022 h -127.6 c -40.459,-24.83 -82.542,-50.657 -111.043,-68.15 h 34.122 c 24.867,14.358 54.482,31.456 82.496,47.63 -26.244,-16.127 -53.723,-33.011 -77.512,-47.63 h 73.478 c 10.763,6.214 21.737,12.551 32.596,18.821 -9.982,-6.213 -20.205,-12.573 -30.244,-18.821 h 41.001 c 4.252,2.456 8.517,4.917 12.773,7.375 -3.885,-2.451 -7.789,-4.914 -11.689,-7.375 h 69.548 z"
           style="fill:#ffffff;fill-opacity:1;fill-rule:nonzero;stroke:none"
           id="path71936"
           inkscape:connector-curvature="0" /><path
           d="m 455.767,444.369 h -18.85 c -26.149,-15.097 -55.557,-32.075 -83.271,-48.076 25.925,15.751 54.37,33.033 79.128,48.076 h -18.423 c -27.881,-16.097 -59.887,-34.576 -90.662,-52.343 28.982,17.677 59.309,36.173 85.821,52.343 H 374.509 C 339.118,423.936 298.001,400.197 256.472,376.22 h 87.803 c 39.275,24.006 79.382,48.522 111.492,68.149"
           style="fill:#ffffff;fill-opacity:1;fill-rule:nonzero;stroke:none"
           id="path71938"
           inkscape:connector-curvature="0" /><path
           d="m 593.212,383.038 c 1.151,0.707 1.788,1.937 1.788,3.198 0,0.653 -0.17,1.313 -0.528,1.914 -1.049,1.762 -3.319,2.354 -5.095,1.329 0,0 -9.144,-5.28 -22.966,-13.259 h 15.691 c 7.068,4.338 11.11,6.818 11.11,6.818"
           style="fill:#ffffff;fill-opacity:1;fill-rule:nonzero;stroke:none"
           id="path71940"
           inkscape:connector-curvature="0" /><path
           d="m 571.957,382.261 c 1.16,0.705 1.804,1.941 1.804,3.208 0,0.65 -0.169,1.307 -0.524,1.906 -1.047,1.768 -3.32,2.364 -5.099,1.337 0,0 -8.082,-4.666 -21.638,-12.492 H 562 c 6.197,3.76 9.957,6.041 9.957,6.041"
           style="fill:#ffffff;fill-opacity:1;fill-rule:nonzero;stroke:none"
           id="path71942"
           inkscape:connector-curvature="0" /><path
           d="m 566.946,440.905 c 1.166,0.704 1.812,1.942 1.812,3.212 0,0.084 -0.011,0.168 -0.017,0.252 h -10.787 c -15.196,-8.773 -62.195,-35.908 -118.04,-68.149 h 19.97 c 42.099,25.436 107.062,64.685 107.062,64.685"
           style="fill:#ffffff;fill-opacity:1;fill-rule:nonzero;stroke:none"
           id="path71944"
           inkscape:connector-curvature="0" /><path
           d="M 505.576,444.369 H 487.693 C 454.862,425.414 412.523,400.97 369.655,376.22 h 24.607 c 41.876,25.636 81.882,50.129 111.314,68.149"
           style="fill:#ffffff;fill-opacity:1;fill-rule:nonzero;stroke:none"
           id="path71946"
           inkscape:connector-curvature="0" /><path
           d="m 81.997,224.688 c -1.155,-0.705 -1.794,-1.937 -1.794,-3.201 0,-0.651 0.17,-1.31 0.526,-1.911 1.049,-1.763 3.32,-2.357 5.097,-1.331 0,0 14.512,8.378 37.544,21.676 h -16.453 c -15.561,-9.512 -24.92,-15.233 -24.92,-15.233"
           style="fill:#ffffff;fill-opacity:1;fill-rule:nonzero;stroke:none"
           id="path71948"
           inkscape:connector-curvature="0" /><path
           d="m 546.851,444.369 h -15.997 c -10.8,-6.235 -21.698,-12.527 -26.761,-15.45 3.557,2.131 16.091,9.641 25.786,15.45 h -15.45 C 488.272,429.268 443.644,403.501 396.389,376.22 h 39.232 c 47.617,29.174 89.286,54.705 111.23,68.149"
           style="fill:#ffffff;fill-opacity:1;fill-rule:nonzero;stroke:none"
           id="path71950"
           inkscape:connector-curvature="0" /><path
           d="m 576.447,304.115 c 1.139,0.71 1.768,1.933 1.768,3.186 0,0.657 -0.172,1.321 -0.534,1.925 -1.052,1.753 -3.317,2.34 -5.089,1.318 0,0 -37.099,-21.419 -49.701,-28.695 17.56,10.681 60.261,36.654 60.261,36.654 1.16,0.705 1.801,1.939 1.801,3.205 0,0.65 -0.169,1.309 -0.524,1.908 -1.047,1.767 -3.321,2.362 -5.099,1.335 0,0 -43.382,-25.047 -61.08,-35.263 24.262,14.75 73.852,44.899 73.852,44.899 1.16,0.705 1.801,1.939 1.801,3.206 0,0.649 -0.169,1.309 -0.524,1.907 -1.047,1.767 -3.32,2.362 -5.099,1.335 0,0 -39.27,-22.673 -51.534,-29.753 9.976,6.031 45.529,27.526 45.529,27.526 1.164,0.704 1.81,1.941 1.81,3.211 0,0.648 -0.168,1.304 -0.522,1.903 -1.045,1.769 -3.321,2.367 -5.101,1.339 0,0 -71.908,-41.516 -133.385,-77.009 67.531,41.496 143.233,88.012 143.233,88.012 1.15,0.707 1.786,1.937 1.786,3.197 0,0.653 -0.171,1.314 -0.529,1.915 -1.048,1.761 -3.318,2.353 -5.094,1.328 0,0 -35.986,-20.776 -45.677,-26.372 8.717,5.262 42.8,25.836 42.8,25.836 1.165,0.703 1.811,1.942 1.811,3.212 0,0.648 -0.169,1.304 -0.521,1.902 -1.046,1.771 -3.322,2.368 -5.102,1.341 0,0 -73.346,-42.348 -136.031,-78.538 55.777,34.231 116.032,71.211 140.349,86.135 h -15.691 c -23.967,-13.838 -62.012,-35.804 -90.923,-52.495 26.955,16.356 67.825,41.155 86.512,52.495 h -15.5 c -30.786,-17.775 -89.851,-51.874 -146.913,-84.819 51.912,31.945 105.261,64.772 137.839,84.819 h -17.059 c -13.833,-7.987 -28.062,-16.202 -38.1,-21.998 9.818,5.931 23.183,14.005 36.416,21.998 h -17.249 c -22.605,-13.05 -48.296,-27.884 -71.544,-41.305 22.43,13.67 46.006,28.037 67.776,41.305 h -37.63 c -1.165,-0.673 -2.305,-1.331 -3.414,-1.972 1.069,0.647 2.16,1.305 3.262,1.972 h -19.97 c -23.784,-13.732 -49.167,-28.387 -74.382,-42.944 23.721,14.534 47.568,29.144 70.089,42.944 h -39.232 c -12.357,-7.135 -24.892,-14.372 -37.324,-21.549 11.752,7.195 23.546,14.416 35.197,21.549 h -24.607 c -5.527,-3.192 -11.062,-6.387 -16.588,-9.577 5.2,3.182 10.425,6.378 15.651,9.577 h -24.261 c -1.094,-0.632 -2.186,-1.263 -3.278,-1.893 1.031,0.63 2.063,1.261 3.096,1.893 h -87.803 c -11.993,-6.924 -24.018,-13.867 -35.951,-20.757 10.796,6.786 22.143,13.916 33.026,20.757 h -39.41 c -3.696,-2.134 -7.369,-4.255 -10.982,-6.341 3.289,2.076 6.651,4.198 10.045,6.341 h -21.61 c -6.487,-3.746 -13.055,-7.537 -19.6,-11.316 5.885,3.777 11.787,7.565 17.629,11.316 H 128.837 C 81.975,345.978 34.464,315.316 34.464,315.316 c -1.109,-0.715 -1.716,-1.92 -1.716,-3.152 0,-0.667 0.177,-1.342 0.549,-1.951 1.061,-1.735 3.312,-2.309 5.074,-1.292 0,0 46.527,26.863 85.703,49.481 C 76.113,327.996 23.825,294.848 23.825,294.848 c -1.124,-0.713 -1.741,-1.927 -1.741,-3.169 0,-0.662 0.175,-1.332 0.542,-1.939 1.056,-1.744 3.314,-2.324 5.081,-1.304 0,0 56.676,32.722 112.154,64.753 C 87.598,319.643 33.88,285.163 33.88,285.163 c -1.114,-0.715 -1.724,-1.923 -1.724,-3.158 0,-0.665 0.177,-1.338 0.548,-1.946 1.059,-1.739 3.312,-2.314 5.075,-1.296 0,0 45.479,26.257 81.694,47.165 -36.182,-22.837 -81.155,-51.222 -81.155,-51.222 -1.128,-0.712 -1.749,-1.928 -1.749,-3.173 0,-0.66 0.175,-1.328 0.541,-1.934 1.055,-1.747 3.314,-2.328 5.082,-1.309 0,0 38.387,22.163 60.022,34.654 -18.756,-11.68 -54.328,-33.833 -54.328,-33.833 -1.139,-0.71 -1.768,-1.932 -1.768,-3.184 0,-0.657 0.173,-1.323 0.535,-1.925 1.052,-1.755 3.317,-2.342 5.088,-1.318 0,0 48.225,27.842 86.897,50.17 -41.575,-26.129 -91.316,-57.391 -91.316,-57.391 -1.132,-0.711 -1.754,-1.93 -1.754,-3.177 0,-0.659 0.174,-1.327 0.538,-1.932 1.055,-1.75 3.316,-2.333 5.084,-1.311 0,0 27.288,15.755 31.566,18.225 -1.458,-0.873 -17.759,-10.642 -17.759,-10.642 -1.171,-0.701 -1.822,-1.943 -1.822,-3.218 0,-0.645 0.167,-1.301 0.518,-1.897 1.044,-1.774 3.323,-2.374 5.105,-1.346 0,0 80.257,46.336 147.974,85.432 C 152.018,296.103 80.568,252.524 59.905,239.921 h 15.323 c 27.855,16.082 84.29,48.665 132.883,76.721 -45.524,-27.66 -98.817,-60.039 -126.273,-76.721 h 15.956 c 36.779,21.233 101.472,58.584 164.485,94.965 -59.706,-36.495 -121.895,-74.509 -155.362,-94.965 h 16.453 c 35.64,20.576 91.688,52.935 145.985,84.283 -51.126,-31.286 -104.621,-64.022 -137.731,-84.283 h 16.947 c 38.471,22.211 96.11,55.488 152.817,88.227 -52.859,-32.36 -106.585,-65.253 -144.11,-88.227 h 34.451 c 35.964,20.764 79.534,45.919 122.807,70.901 -40.638,-24.898 -81.657,-50.029 -115.721,-70.901 h 20.011 c 7.635,4.408 15.034,8.68 21.891,12.639 -6.46,-3.904 -13.549,-8.187 -20.918,-12.639 h 37.014 c 17.463,10.082 35.54,20.518 53.11,30.663 -16.541,-10.08 -33.709,-20.543 -50.316,-30.663 h 39.673 c 12.509,7.222 25.235,14.569 37.901,21.882 -11.866,-7.302 -23.807,-14.651 -35.56,-21.882 h 43.708 c 1.996,1.152 3.99,2.305 5.983,3.454 -1.872,-1.147 -3.749,-2.301 -5.628,-3.454 h 127.6 c 50.831,31.631 103.163,64.194 103.163,64.194"
           style="fill:#d01e28;fill-opacity:1;fill-rule:nonzero;stroke:none"
           id="path71952"
           inkscape:connector-curvature="0" /><path
           d="m 568.932,274.747 c 1.128,0.712 1.749,1.929 1.749,3.174 0,0.66 -0.174,1.328 -0.54,1.933 -1.055,1.749 -3.316,2.33 -5.083,1.309 0,0 -41.581,-24.006 -62.322,-35.981 23.188,14.262 66.528,40.92 66.528,40.92 1.149,0.707 1.784,1.935 1.784,3.195 0,0.653 -0.171,1.315 -0.528,1.916 -1.05,1.761 -3.32,2.351 -5.095,1.327 0,0 -46.902,-27.078 -91.138,-52.619 h 39.443 c 31.333,19.767 55.202,34.826 55.202,34.826"
           style="fill:#d01e28;fill-opacity:1;fill-rule:nonzero;stroke:none"
           id="path71954"
           inkscape:connector-curvature="0" /><path
           d="m 557.854,253.751 c 1.123,0.713 1.741,1.927 1.741,3.168 0,0.662 -0.176,1.333 -0.543,1.938 -1.057,1.746 -3.314,2.325 -5.08,1.305 0,0 -14.628,-8.446 -35.059,-20.241 h 17.144 c 12.9,8.185 21.797,13.83 21.797,13.83"
           style="fill:#d01e28;fill-opacity:1;fill-rule:nonzero;stroke:none"
           id="path71956"
           inkscape:connector-curvature="0" /><path
           d="m 13.243,335.868 c -1.106,-0.716 -1.711,-1.92 -1.711,-3.149 0,-0.668 0.177,-1.344 0.551,-1.953 1.061,-1.735 3.311,-2.307 5.071,-1.29 0,0 22.874,13.206 28.884,16.676 -3.342,-2.066 -20.663,-12.773 -20.663,-12.773 -1.146,-0.708 -1.778,-1.935 -1.778,-3.191 0,-0.656 0.171,-1.318 0.531,-1.92 0.647,-1.083 1.759,-1.697 2.93,-1.789 -0.2,-0.123 -4.876,-2.984 -4.876,-2.984 -1.155,-0.706 -1.793,-1.937 -1.793,-3.2 0,-0.652 0.17,-1.312 0.527,-1.912 1.048,-1.764 3.319,-2.357 5.096,-1.331 0,0 51.271,29.602 102.478,59.168 H 75.569 C 41.262,354.008 13.243,335.868 13.243,335.868"
           style="fill:#d01e28;fill-opacity:1;fill-rule:nonzero;stroke:none"
           id="path71958"
           inkscape:connector-curvature="0" /><path
           d="m 8.033,348.317 c -1.127,-0.712 -1.746,-1.927 -1.746,-3.171 0,-0.662 0.175,-1.331 0.541,-1.936 1.056,-1.747 3.315,-2.327 5.082,-1.308 0,0 26.42,15.254 59.438,34.318 H 52.168 C 28.771,361.427 8.033,348.317 8.033,348.317"
           style="fill:#d01e28;fill-opacity:1;fill-rule:nonzero;stroke:none"
           id="path71960"
           inkscape:connector-curvature="0" /><path
           d="m 7.098,369.613 c -1.104,-0.717 -1.708,-1.919 -1.708,-3.147 0,-0.669 0.178,-1.345 0.552,-1.955 1.062,-1.733 3.311,-2.304 5.071,-1.288 0,0 15.557,8.982 18.371,10.607 -1.196,-0.743 -11.503,-7.145 -11.503,-7.145 -1.141,-0.709 -1.771,-1.934 -1.771,-3.187 0,-0.656 0.172,-1.321 0.534,-1.924 1.051,-1.755 3.317,-2.343 5.089,-1.319 0,0 12.536,7.238 27.651,15.965 H 17.275 C 10.862,372.057 7.098,369.613 7.098,369.613"
           style="fill:#d01e28;fill-opacity:1;fill-rule:nonzero;stroke:none"
           id="path71962"
           inkscape:connector-curvature="0" /></g></g></g></svg>